<?xml version="1.0" encoding="utf-8"?>
<!-- Generator: Adobe Illustrator 25.0.1, SVG Export Plug-In . SVG Version: 6.00 Build 0)  -->
<svg version="1.1" id="Layer_1" xmlns="http://www.w3.org/2000/svg" xmlns:xlink="http://www.w3.org/1999/xlink" x="0px" y="0px"
	 viewBox="0 0 104 104" style="enable-background:new 0 0 104 104;" xml:space="preserve">
<style type="text/css">
	.st0{fill:#83AEAF;}
	.st1{fill:#7794E7;}
	.st2{fill:#E1AC44;}
</style>
<path class="st0" d="M56.5,103c-0.4,0-0.8-0.1-1.3-0.2c-2.6-0.7-4.2-3.4-3.5-6l4-15.2c0-0.1,0-0.1,0.1-0.2l8.9-17L65.7,54L59,59.2
	l-1.8,11.4c-0.3,2.1-2.3,3.6-4.5,3.2c-2.1-0.3-3.6-2.3-3.2-4.5l2.1-13.9c0-0.2,0.1-0.4,0.3-0.6l12-12.1c0.2-0.2,0.4-0.3,0.6-0.3
	l13.8-1.8l11.4-21.2c1-2,3.5-2.7,5.4-1.6c0.9,0.5,1.6,1.3,1.9,2.2c0.4,1,0.3,2.1-0.2,3.1c-4.5,8.6-8.4,17.4-11.9,26.4L83,66.5
	L88.7,82c0,0.1,0,0.1,0,0.2L90.8,97c0.4,2.7-1.6,5.3-4.3,5.6c-1.2,0.2-2.5-0.1-3.5-0.8c-1.1-0.8-1.9-2-2.1-3.3l-2-13.7L73,74.6
	l-7.8,11l-3.9,13.8C60.7,101.5,58.8,103,56.5,103z"/>
<path class="st0" d="M70.2,39.9c-4.5,0-8.1-3.6-8.1-8.1s3.6-8.1,8.1-8.1c4.5,0,8.1,3.6,8.1,8.1l0,0C78.3,36.2,74.7,39.9,70.2,39.9z"
	/>
<path class="st1" d="M24.7,102.6c-2.4,0-4.5-1.8-4.9-4.2l-4.5-30.8c0-0.2,0-0.5,0.1-0.7l7.1-12.6l-11-14.9c-0.2-0.2-0.2-0.5-0.2-0.8
	l2.3-14.1c0.1-0.9,0.6-1.7,1.2-2.3c0.7-0.6,1.5-1,2.5-1c1.1,0,2.2,0.4,3,1.3c0.8,0.8,1.1,2,1,3.1l-1.4,10.7l7.6,7.8l10.8-1.6
	l6.2-9.3l-3.4-10.7c-0.1-0.4-0.2-0.8-0.2-1.2c0-2.2,1.8-4,4-4c0.6,0,1.2,0.1,1.7,0.4c1,0.5,1.7,1.3,2.1,2.3l4.6,13.9
	c0.1,0.3,0.1,0.6-0.1,0.8L42.8,54.1l-2.1,12L47,80.6c0.1,0.2,0.1,0.5,0,0.7l-4.8,17.6c-0.7,2.6-3.3,4.2-6,3.6s-4.2-3.3-3.6-6
	l3.4-14.4l-6.9-9.5l-1,0.7l1.7,23.9c0.2,2.6-1.7,4.9-4.3,5.2h-0.4L24.7,102.6z"/>
<path class="st1" d="M31.7,41.1c-4.2,0-7.6-3.4-7.6-7.6c0-4.2,3.4-7.6,7.6-7.6c4.2,0,7.6,3.4,7.6,7.6c0,0,0,0,0,0
	C39.3,37.7,35.9,41.1,31.7,41.1z"/>
<path class="st2" d="M73.2,4.7c-1.3-3.7-5.8-3.9-7.9-3.5c-0.5,0.1-0.8,0.5-0.8,0.9l-1.2,12.4c-1-0.7-2.2-1.1-3.6-1.1
	c-3,0-5.4,1.9-5.4,4.2s2.4,4.2,5.4,4.2c3,0,5.3-1.8,5.4-4.1c0,0,0,0,0,0l0,0c0,0,0,0,0,0c0,0,0,0,0,0l1.4-14.5c1.3-0.1,4,0,4.8,2.3
	c0.2,0.5,0.8,0.8,1.3,0.6C73.1,5.9,73.4,5.3,73.2,4.7z"/>
<path class="st2" d="M15.1,56.5c-1-2.9-4.5-3.1-6.1-2.8c-0.5,0.1-0.8,0.5-0.8,0.9l-0.8,8.7c-0.7-0.4-1.5-0.6-2.4-0.6
	c-2.4,0-4.3,1.5-4.3,3.4c0,1.9,1.9,3.4,4.3,3.4s4.3-1.5,4.3-3.4c0-0.1,0-0.2,0-0.3l1-10.1c1,0,2.6,0.1,3,1.5c0,0,0,0.1,0,0.1
	c0.2,0.5,0.8,0.8,1.4,0.5C15.1,57.6,15.3,57,15.1,56.5z"/>
<path class="st2" d="M103.3,50.1c-1-2.9-4.5-3.1-6.1-2.8c-0.5,0.1-0.8,0.5-0.8,0.9L95.5,57c-0.7-0.4-1.5-0.6-2.4-0.6
	c-2.4,0-4.3,1.4-4.3,3.4c0,1.9,1.9,3.4,4.3,3.4c2.4,0,4.3-1.4,4.3-3.3c0-0.1,0-0.2,0-0.3l1-10.2c1,0,2.6,0.1,3,1.5
	c0.2,0.5,0.8,0.8,1.3,0.6C103.2,51.2,103.5,50.6,103.3,50.1z"/>
</svg>
