<svg xmlns="http://www.w3.org/2000/svg" viewBox="0 0 30 30"><g><path d="M18.14,17,17,19H7.55a1,1,0,0,1,0-2Zm.11-2.31H7.55a1,1,0,0,1,0-2h10.7a1,1,0,0,1,0,2Zm0-4.34H7.55a1,1,0,0,1,0-2h10.7a1,1,0,0,1,0,2Zm6.51,1.12A3.34,3.34,0,0,1,28,14a.7.7,0,0,1-.07.51L20.83,26.73a.72.72,0,0,1-.24.25L17.3,28.91l-.07,0-.09,0L17,29a.66.66,0,0,1-.68-.66l0-3.86a.73.73,0,0,1,.09-.35l7.09-12.22a.7.7,0,0,1,.31-.28l.09,0A3.48,3.48,0,0,1,24.76,11.49ZM5.89,25.86A2.91,2.91,0,0,1,3,22.94v-17H3A2.91,2.91,0,0,1,5.89,3h14A2.91,2.91,0,0,1,22.8,5.94V9.79a2.74,2.74,0,0,0-1.1,1.06L20.45,13v-7a.54.54,0,0,0-.52-.56H5.87a.55.55,0,0,0-.53.56v17h0a.55.55,0,0,0,.55.54h8.54a2.71,2.71,0,0,0-.19,1v1.41Z" fill="#c2892b" fill-rule="evenodd"/></g></svg>