<svg xmlns="http://www.w3.org/2000/svg" viewBox="0 0 30 30"><g><path d="M3.9,21.12c.07-2.39-1.23-3.29-2.81-3.88A3.06,3.06,0,0,0,3.9,21.12Z" fill="#79b0b1"/><path d="M4.11,9.36c1-2.16.17-3.51-1.06-4.68A3.08,3.08,0,0,0,4.11,9.36Z" fill="#79b0b1"/><path d="M7.56,12.36C6,13,4.68,13.85,4.75,16.24A3.06,3.06,0,0,0,7.56,12.36Z" fill="#79b0b1"/><path d="M7.56,16.4C6,17,4.68,17.9,4.75,20.28A3.06,3.06,0,0,0,7.56,16.4Z" fill="#79b0b1"/><path d="M7.56,8.31C6,8.9,4.68,9.8,4.75,12.19A3.06,3.06,0,0,0,7.56,8.31Z" fill="#79b0b1"/><path d="M3.9,17.07c.07-2.38-1.23-3.29-2.81-3.88A3.06,3.06,0,0,0,3.9,17.07Z" fill="#79b0b1"/><path d="M3.9,13C4,10.64,2.67,9.74,1.09,9.14A3.07,3.07,0,0,0,3.9,13Z" fill="#79b0b1"/><path d="M23.57,6.18s.44-3.74-4.15-4.1C19.42,2.08,19.64,6.56,23.57,6.18Z" fill="#79b0b1"/><path d="M20.59,15.3a2,2,0,0,0,1.41.6,1.94,1.94,0,0,0,1.58-.81,1.94,1.94,0,0,0,1.58.81,2.09,2.09,0,0,0,1.41-.6,16.47,16.47,0,0,0,1.65-2.54,6.16,6.16,0,0,0,.8-2.71,3.28,3.28,0,0,0-3.2-3.3,3.22,3.22,0,0,0-2.24.91,3.22,3.22,0,0,0-2.24-.91,3.28,3.28,0,0,0-3.2,3.3,6.16,6.16,0,0,0,.8,2.71A16.47,16.47,0,0,0,20.59,15.3Z" fill="#79b0b1"/><path d="M27,16,2,22.83a1.42,1.42,0,0,0,.37,2.79,1.18,1.18,0,0,0,.37-.05l11.18-3-3.49,6c-.39.68-.07,1.23.71,1.23h7.54c.79,0,1.11-.55.72-1.23l-3.76-6.5,12.19-3.3a1.41,1.41,0,0,0,1-1.74A1.43,1.43,0,0,0,27,16ZM13,27.93l1.91-3.31,1.91,3.31Z" fill="#79b0b1"/></g></svg>