<svg xmlns="http://www.w3.org/2000/svg" viewBox="0 0 30 30"><g><circle cx="15" cy="9.38" r="3.54" fill="#79b0b1"/><path d="M6.24,9.94A3.14,3.14,0,1,0,3.1,6.81,3.14,3.14,0,0,0,6.24,9.94Z" fill="#79b0b1"/><path d="M23.76,9.94a3.14,3.14,0,1,0-3.14-3.13A3.13,3.13,0,0,0,23.76,9.94Z" fill="#79b0b1"/><path d="M29.62,16.07a14,14,0,0,0-.46-1.52,9,9,0,0,0-1.08-2.26,3.46,3.46,0,0,0-2.18-1.4,9.88,9.88,0,0,0-2-.2h-.23a9.75,9.75,0,0,0-2,.2,3.51,3.51,0,0,0-2.19,1.4,8.64,8.64,0,0,0-1,2.07,4.19,4.19,0,0,0-1-.37,10.17,10.17,0,0,0-2.27-.23h-.26A10.17,10.17,0,0,0,12.6,14a4.19,4.19,0,0,0-1,.37,8.64,8.64,0,0,0-1-2.07,3.51,3.51,0,0,0-2.19-1.4,9.75,9.75,0,0,0-2-.2H6.12a9.88,9.88,0,0,0-2,.2,3.46,3.46,0,0,0-2.18,1.4A9,9,0,0,0,.84,14.55a14,14,0,0,0-.46,1.52c-.12.51-.21,1-.3,1.54A1,1,0,0,0,2.13,18s.21-1,.35-1.4.28-.87.45-1.28l0,0H3v8.14a1.31,1.31,0,0,0,1.31,1.31,1.3,1.3,0,0,0,1.3-1.28V20.31a.65.65,0,0,1,.65-.65.64.64,0,0,1,.64.65v3.17a1.31,1.31,0,0,0,2.62,0V22.9a1.18,1.18,0,0,0,.87-.87s.24-1.07.39-1.57A14.65,14.65,0,0,1,11.27,19l0,0h0v9.17a1.47,1.47,0,0,0,2.94,0V24.6a.73.73,0,0,1,1.46,0v3.57a1.47,1.47,0,0,0,2.94,0V19h0a.08.08,0,0,0,0,0,14.65,14.65,0,0,1,.51,1.45c.15.5.39,1.57.39,1.57a1.18,1.18,0,0,0,.87.87v.55a1.31,1.31,0,0,0,2.62,0V20.31a.64.64,0,0,1,.64-.65.65.65,0,0,1,.65.65v3.17a1.3,1.3,0,0,0,1.3,1.28A1.31,1.31,0,0,0,27,23.45V15.31h0l0,0c.17.41.32.85.45,1.28s.35,1.4.35,1.4a1,1,0,0,0,2.05-.42C29.83,17.09,29.74,16.58,29.62,16.07Z" fill="#79b0b1"/></g></svg>