<svg xmlns="http://www.w3.org/2000/svg" viewBox="0 0 30 30"><g><path d="M11.35,8.48,7.62,4.76l1-1A1,1,0,1,0,7.22,2.34L2.37,7.18A1,1,0,0,0,3.79,8.59l1-1,3.72,3.72Z" fill="#64a3c8"/><path d="M27.87,26.78,25,23.89l.19-.2a1.11,1.11,0,0,0,0-1.58l-.57-.58a2.56,2.56,0,0,0-.2-3.38l-8.8-8.8L16.92,8a1,1,0,0,0,0-1.41,1,1,0,0,0-1.42,0L6.66,15.47a1,1,0,1,0,1.41,1.41l1.31-1.31,8.8,8.8a2.56,2.56,0,0,0,3.39.2l.57.58a1.14,1.14,0,0,0,1.59,0l.2-.2,2.88,2.89a.75.75,0,0,0,1.06,0A.74.74,0,0,0,27.87,26.78ZM14.43,14.3a.75.75,0,0,1,0-1.06l1.32-1.32A.75.75,0,1,1,16.81,13L15.49,14.3A.75.75,0,0,1,14.43,14.3Zm1.85,1.85a.75.75,0,0,1,0-1.06l1.32-1.33a.75.75,0,1,1,1.06,1.07l-1.32,1.32A.75.75,0,0,1,16.28,16.15ZM18.13,18a.77.77,0,0,1,0-1.07l1.32-1.32a.75.75,0,0,1,1.06,1.06L19.19,18A.75.75,0,0,1,18.13,18Zm4.23.52L21,19.84a.74.74,0,0,1-1.06,0,.75.75,0,0,1,0-1.06l1.32-1.32a.75.75,0,0,1,1.06,1.06Z" fill="#64a3c8"/></g></svg>