<svg xmlns="http://www.w3.org/2000/svg" viewBox="0 0 30 30"><g><path d="M15,2.39A10.74,10.74,0,0,0,6,19a1.9,1.9,0,0,0,2.62.57,4.58,4.58,0,0,1,.5-.74,4.5,4.5,0,0,1,3.46-1.57,4.55,4.55,0,0,1,2,.46L15,18l.42-.23a4.55,4.55,0,0,1,2-.46,4.5,4.5,0,0,1,3.46,1.57,4.58,4.58,0,0,1,.5.74A1.9,1.9,0,0,0,24,19,10.74,10.74,0,0,0,15,2.39ZM9.3,13.72H7.68a1,1,0,1,1,0-2H9.3a1,1,0,0,1,0,2Zm2.28-4.34a1,1,0,0,1-.71.29,1,1,0,0,1-.7-.29L9,8.23A1,1,0,0,1,9,6.82a1,1,0,0,1,1.42,0L11.58,8A1,1,0,0,1,11.58,9.38Zm6.84-1.3,1.14-1.15A1,1,0,1,1,21,8.35L19.83,9.49a1,1,0,0,1-.7.29,1,1,0,0,1-.71-.29A1,1,0,0,1,18.42,8.08ZM14,5.52a1,1,0,0,1,2,0V7.14a1,1,0,0,1-2,0Zm6.91,7.94L16.62,14a2,2,0,1,1,0-2.49l4.28.51a.74.74,0,0,1,0,1.47Z" fill="#64a3c8"/><path d="M17.42,19.27a2.5,2.5,0,0,0-1.11.25A3,3,0,0,0,15,20.66h0a3,3,0,0,0-1.31-1.14,2.61,2.61,0,0,0-3,.59,3.2,3.2,0,0,0,.16,4,28.13,28.13,0,0,0,3.88,3.46.42.42,0,0,0,.3.12h0a.42.42,0,0,0,.3-.12,28.13,28.13,0,0,0,3.88-3.46,3.2,3.2,0,0,0,.16-4A2.51,2.51,0,0,0,17.42,19.27Z" fill="#64a3c8"/></g></svg>