<svg xmlns="http://www.w3.org/2000/svg" viewBox="0 0 30 30"><g><path d="M29.66,4.8,23.52.45a.92.92,0,0,0-1.07,0L16.31,4.8a.73.73,0,0,0,.42,1.33h1.16v7a.81.81,0,0,0,.81.81h2a.81.81,0,0,0,.81-.81V10.84a1.49,1.49,0,0,1,3,0v2.33a.81.81,0,0,0,.81.81h1.88a.82.82,0,0,0,.82-.81v-7h1.26A.73.73,0,0,0,29.66,4.8Z" fill="#64a3c8"/><path d="M10.7,9.18A2.32,2.32,0,1,0,8.42,6.87,2.29,2.29,0,0,0,10.7,9.18Z" fill="#64a3c8"/><path d="M7.5,22.36V19.7a1.15,1.15,0,0,0-1.15-1.13H1.15A1.15,1.15,0,0,0,0,19.7v2.66A1.15,1.15,0,0,0,1.15,23.5h5.2A1.15,1.15,0,0,0,7.5,22.36Zm-1.87-.73H4.38v1.23H3.13V21.63H1.88V20.4H3.13V19.2H4.38v1.2H5.63Z" fill="#64a3c8"/><path d="M16.91,17.21l-3.56-1.52-1.2-3.4c-.26-.72-.41-1.59-1.14-2a3.16,3.16,0,0,0-2-.3,4.27,4.27,0,0,0-1.32.33c-.47.23-2.61,2-3.29,2.48-.28.22-.62.4-.7.78L3,17.29H4.68l.64-3,1.67-1c-.22,1.69-.47,3.61-.55,4.06a2.41,2.41,0,0,1,2.33,2.4v2.66a2.41,2.41,0,0,1-2.42,2.41H4.15L1.9,28.52A1,1,0,0,0,3.48,29.6l1.76-2.27h6.15l1.12,2.11a1,1,0,0,0,1.75-.77S13,25.05,13,25.05c-.39-1-.74-2-1.18-2.95a22.56,22.56,0,0,1-1.06-2.41,5.93,5.93,0,0,1-.28-2.13,1.48,1.48,0,0,1,.18-.69,2.09,2.09,0,0,1,.65-.57c.06,0,.22-.14.35-.24l.25.57,0,0a.78.78,0,0,0,.44.43l3.9,1.67a.85.85,0,0,0,1.11-.45A.84.84,0,0,0,16.91,17.21Z" fill="#64a3c8"/></g></svg>