<svg xmlns="http://www.w3.org/2000/svg" viewBox="0 0 30 30"><g><path d="M4.44,17.2a2.15,2.15,0,1,0-2.15-2.15A2.14,2.14,0,0,0,4.44,17.2Z" fill="#79b0b1"/><path d="M12.29,13.52a2.93,2.93,0,1,0-2.93-2.93A2.93,2.93,0,0,0,12.29,13.52Z" fill="#79b0b1"/><path d="M22.65,10.77a3.51,3.51,0,1,0-3.51-3.51A3.51,3.51,0,0,0,22.65,10.77Z" fill="#79b0b1"/><path d="M29.2,17.62a17.41,17.41,0,0,0-.51-1.7,10.49,10.49,0,0,0-1.2-2.53A3.91,3.91,0,0,0,25,11.83a10.08,10.08,0,0,0-2.26-.23h-.26a10.05,10.05,0,0,0-2.25.23A3.93,3.93,0,0,0,18.11,13a7.17,7.17,0,0,0-1.49,3.18,4.66,4.66,0,0,0-.3-.47,3.26,3.26,0,0,0-2-1.3,8.51,8.51,0,0,0-1.88-.19h-.22a8.51,8.51,0,0,0-1.88.19,3.26,3.26,0,0,0-2,1.3,6.28,6.28,0,0,0-1,2.92,2.39,2.39,0,0,0-1.34-.77,6.34,6.34,0,0,0-1.38-.14H4.36A6.4,6.4,0,0,0,3,17.85a2.37,2.37,0,0,0-1.5.95,6.7,6.7,0,0,0-.74,1.55c-.12.34-.22.69-.31,1s-.14.7-.21,1.05a.72.72,0,0,0,.58.83.71.71,0,0,0,.82-.54v0c.07-.31.14-.62.23-.93s.19-.59.31-.87l0,0h0v5.56a.89.89,0,0,0,1.78,0V24.29a.45.45,0,1,1,.89,0v2.17a.89.89,0,0,0,1.78,0V20.87h0v0c.12.28.21.58.31.87s.16.62.23.93v0a.72.72,0,0,0,1.4-.29v-.07a5.67,5.67,0,0,1,.14-2.61,11.35,11.35,0,0,1,.43-1.2v0h0v7.59a1.22,1.22,0,0,0,2.44,0v-3a.6.6,0,1,1,1.2,0v3a1.22,1.22,0,0,0,2.44,0V18.52h0v0a11.35,11.35,0,0,1,.43,1.2c.12.41.22.83.31,1.25v0a1,1,0,0,0,1.12.74A1,1,0,0,0,18,20.66a.13.13,0,0,0,0-.06A5.25,5.25,0,0,1,19,16.81s0,0,0,0h0v9.1a1.46,1.46,0,0,0,2.92,0V22.36a.72.72,0,1,1,1.44,0V25.9a1.47,1.47,0,0,0,2.93,0v-9.1h0l0,0a13.62,13.62,0,0,1,.51,1.44c.15.49.26,1,.38,1.5v.05a1.17,1.17,0,0,0,2.29-.47C29.44,18.76,29.34,18.18,29.2,17.62Z" fill="#79b0b1"/></g></svg>