<svg xmlns="http://www.w3.org/2000/svg" viewBox="0 0 30 30"><g><path d="M17,13.87a3,3,0,0,0,1.26,0,4.08,4.08,0,0,0,2.05-1s.07-.07.08-.12a.28.28,0,0,0,0-.2,1.84,1.84,0,0,0-.9-.82,2.8,2.8,0,0,0-1.21-.22,3.47,3.47,0,0,0-1.51.4.76.76,0,0,0,0-.21A1.33,1.33,0,1,0,15.46,13a1.25,1.25,0,0,0,.58-.15s0,.07,0,.11C16.05,13.44,16.59,13.77,17,13.87Zm-3.92,7.24a1.75,1.75,0,1,0-1.75-1.75A1.75,1.75,0,0,0,13.11,21.11Zm15.09,3.3a.59.59,0,0,1-.5.68h-.11a.6.6,0,0,1-.61-.49,15.73,15.73,0,0,0-.7-2.37V24a.14.14,0,0,1,0,.06c0,1.71-.05,3.29-.16,4.81a.73.73,0,0,1-.74.66H14.74a.47.47,0,0,0,0-.17c.09-1.27.13-2.59.14-4a.43.43,0,0,1,0-.05V23.79a14.12,14.12,0,0,1,.59,2,.51.51,0,0,0,.51.41h.09a.5.5,0,0,0,.43-.57c-.09-.48-.57-2.9-1.45-3.54a3.52,3.52,0,0,0-1.93-.43,4.42,4.42,0,0,0-2,.4c-.94.58-1.38,2.89-1.49,3.58a.5.5,0,0,0,.44.56h.08a.52.52,0,0,0,.52-.42,9.63,9.63,0,0,1,.59-2v1.45h0c0,1.44.05,2.77.13,4.05a.84.84,0,0,0,0,.17l-5.89,0A1.24,1.24,0,0,1,4.3,28.15l.86-13L5.23,10l-.3,1.47c-.2,1-.41,1.95-.61,2.93-.15.72-.3,1.45-.46,2.18a1,1,0,0,1-1,.88,1.08,1.08,0,0,1-1-.83,2.34,2.34,0,0,1,.08-1c.08-.38.15-.76.23-1.15.19-1,.39-1.95.58-2.92.13-.68.27-1.36.4-2l0-.13a3.92,3.92,0,0,1,3.49-3H9.11A3.94,3.94,0,0,1,12.6,9.41L12.89,11c.19-.72.58-1.93.58-1.93a2.07,2.07,0,0,1,2.32-1.34H19a2.35,2.35,0,0,1,2.34,1.37s1.09,3.58.9,4.43c-.1.47-.9,1.17-1.72,1.63l.82,5.39a2,2,0,0,1,.44-.4,5.14,5.14,0,0,1,2.41-.48,4.25,4.25,0,0,1,2.29.51C27.52,20.94,28.1,23.84,28.2,24.41Zm-3.95-5.25a2,2,0,1,1,2-2A2,2,0,0,1,24.25,19.16ZM17.54,7.08A2.46,2.46,0,1,1,20,4.62,2.46,2.46,0,0,1,17.54,7.08ZM7.87,5.34a2.42,2.42,0,1,1,2.41-2.42A2.42,2.42,0,0,1,7.87,5.34Z" fill="#f47963" fill-rule="evenodd"/></g></svg>