<svg xmlns="http://www.w3.org/2000/svg" viewBox="0 0 30 30"><g><path d="M28.73,14l-5.35-3.8a.81.81,0,0,0-.94,0L17.09,14a.64.64,0,0,0,.37,1.16h1v6.13a.71.71,0,0,0,.71.71h1.73a.71.71,0,0,0,.71-.71v-2a1.29,1.29,0,0,1,2.58,0v2a.71.71,0,0,0,.71.71h1.64a.71.71,0,0,0,.71-.71V15.11h1.1A.64.64,0,0,0,28.73,14Z" fill="#c2892b" fill-rule="evenodd"/><path d="M17,9.46a.58.58,0,0,0,.58.59H19a.58.58,0,0,0,.59-.59V4.36h.92a.53.53,0,0,0,.3-1L16.35.24a.66.66,0,0,0-.78,0L11.12,3.4a.53.53,0,0,0,.31,1h.84v5.1a.59.59,0,0,0,.59.59H14.3a.59.59,0,0,0,.59-.59V7.77a1.08,1.08,0,0,1,2.15,0Z" fill="#c2892b" fill-rule="evenodd"/><path d="M12.41,16.94l-1.35-3.22L9.85,10.84a2.63,2.63,0,0,0-1-1.3A4,4,0,0,0,6.68,9H6.45A2.48,2.48,0,1,0,4,6.56,2.49,2.49,0,0,0,6.45,9H6.23A4,4,0,0,0,4,9.54a2.57,2.57,0,0,0-1,1.3L1.85,13.72.49,16.94l-.41,1a1,1,0,0,0,.51,1.33.92.92,0,0,0,.39.09,1,1,0,0,0,.91-.61L4,13.62,1.49,26.4H3.84L4,29a.89.89,0,0,0,1.78,0l.15-2.62H7L7.14,29a.91.91,0,0,0,1,.87A.89.89,0,0,0,8.93,29l.14-2.62h2.35L8.87,13.62,11,18.73a1,1,0,0,0,.91.61.92.92,0,0,0,.39-.09,1,1,0,0,0,.51-1.33ZM7.94,14H7v1H6V14H5V13H6V12H7v1h1Z" fill="#c2892b" fill-rule="evenodd"/></g></svg>