<?xml version="1.0" encoding="utf-8"?>
<!-- Generator: Adobe Illustrator 15.0.0, SVG Export Plug-In . SVG Version: 6.00 Build 0)  -->
<!DOCTYPE svg PUBLIC "-//W3C//DTD SVG 1.1//EN" "http://www.w3.org/Graphics/SVG/1.1/DTD/svg11.dtd">
<svg version="1.1" id="Layer_1" xmlns="http://www.w3.org/2000/svg" xmlns:xlink="http://www.w3.org/1999/xlink" x="0px" y="0px"
	 width="350px" height="350px" viewBox="0 0 350 350" enable-background="new 0 0 350 350" xml:space="preserve">
<circle fill="#6AB257" stroke="#CCCCCC" stroke-width="2" stroke-miterlimit="10" cx="175.479" cy="172.98" r="152.402"/>
<g>
	<g>
		<path fill-rule="evenodd" clip-rule="evenodd" fill="#FFFFFF" d="M174.791,62.934c9.934,0,17.975,8.145,17.975,18.191
			s-8.041,18.191-17.975,18.191c-9.926,0-17.977-8.145-17.977-18.191S164.865,62.934,174.791,62.934"/>
		<path fill-rule="evenodd" clip-rule="evenodd" fill="#FFFFFF" d="M195.865,103.111l-40.289-0.021
			c-12.727,0.004-20.701,10.508-20.701,23.607v55.846c0,10.857,14.176,10.857,14.176,0v-54.355h4.51l-0.016,147.496
			c0,5.629,4.512,10.199,10.072,10.199c5.574,0,10.082-4.57,10.082-10.199l0.01-85.555h4.488l-0.033,85.555
			c0,5.629,4.518,10.199,10.082,10.199c5.561,0,10.07-4.57,10.07-10.199l0.049-147.496h4.422v54.355
			c0,10.934,14.088,10.934,14.057,0v-55.512C216.844,114.949,209.834,103.111,195.865,103.111"/>
	</g>
	<polygon fill-rule="evenodd" clip-rule="evenodd" fill="#6AB257" points="190.365,124.438 180.326,124.438 180.326,114.395 
		171.398,114.395 171.398,124.438 161.359,124.438 161.359,133.359 171.398,133.359 171.398,143.398 180.326,143.398 
		180.326,133.359 190.365,133.359 	"/>
</g>
</svg>
