<?xml version="1.0" standalone="no"?><!DOCTYPE svg PUBLIC "-//W3C//DTD SVG 1.1//EN" "http://www.w3.org/Graphics/SVG/1.1/DTD/svg11.dtd"><svg width="100%" height="100%" viewBox="0 0 48 48" version="1.1" xmlns="http://www.w3.org/2000/svg" xmlns:xlink="http://www.w3.org/1999/xlink" xml:space="preserve" style="fill-rule:evenodd;clip-rule:evenodd;stroke-linejoin:round;stroke-miterlimit:1.41421;"><clipPath id="_clip1"><rect id="icons-color" x="0" y="0" width="48" height="48"/></clipPath><g clip-path="url(#_clip1)"><path id="Icon-district" d="M32.4,8.4c0.721,0 1.2,0.485 1.2,1.2l0,6l9.966,0.003c1.004,0 2.037,0.89 2.037,2.037l-0.003,21.955l2.4,0l0,6.005l-48,0l0,-6.005l2.397,0l0.003,-21.955c0,-1.147 1.035,-2.04 2.04,-2.04l9.96,0l0,-6c0,-0.719 0.486,-1.2 1.2,-1.2l3.6,0l0,-4.8c0,-0.72 0.48,-1.2 1.2,-1.2l7.2,0c0.714,0 1.2,0.488 1.2,1.2l0,4.8l3.6,0ZM12,32.4l-4.8,0l0,7.2l4.8,0l0,-7.2ZM40.8,32.4l-4.8,0l0,7.2l4.8,0l0,-7.2ZM26.4,30l0,4.8l-4.8,0l0,-4.8l-4.8,0l0,-4.8l4.8,0l0,-4.8l4.8,0l0,4.8l4.8,0l0,4.8l-4.8,0ZM12,20.4l-4.8,0l0,7.2l4.8,0l0,-7.2ZM40.8,20.4l-4.8,0l0,7.2l4.8,0l0,-7.2Z" style="fill:#323232;"/></g></svg>