<?xml version="1.0" standalone="no"?><!DOCTYPE svg PUBLIC "-//W3C//DTD SVG 1.1//EN" "http://www.w3.org/Graphics/SVG/1.1/DTD/svg11.dtd"><svg width="100%" height="100%" viewBox="0 0 48 48" version="1.1" xmlns="http://www.w3.org/2000/svg" xmlns:xlink="http://www.w3.org/1999/xlink" xml:space="preserve" style="fill-rule:evenodd;clip-rule:evenodd;stroke-linejoin:round;stroke-miterlimit:1.41421;"><clipPath id="_clip1"><rect id="icons-color" x="0" y="0" width="48" height="48"/></clipPath><g clip-path="url(#_clip1)"><path id="icon-person" d="M43.502,48l-39.004,0c-1.048,-10.832 2.082,-19.955 8.821,-24.468c2.692,2.818 6.485,4.576 10.681,4.576c4.196,0 7.989,-1.758 10.681,-4.576c6.739,4.513 9.869,13.636 8.821,24.468ZM24,22.933c-6.323,0 -11.467,-5.143 -11.467,-11.466c0,-6.324 5.144,-11.467 11.467,-11.467c6.323,0 11.467,5.143 11.467,11.467c0,6.323 -5.144,11.466 -11.467,11.466Z" style="fill:#63a3c8;"/></g></svg>