<?xml version="1.0" encoding="UTF-8" standalone="no"?>
<!-- Created with Inkscape (http://www.inkscape.org/) -->

<svg
   xmlns:dc="http://purl.org/dc/elements/1.1/"
   xmlns:cc="http://creativecommons.org/ns#"
   xmlns:rdf="http://www.w3.org/1999/02/22-rdf-syntax-ns#"
   xmlns:svg="http://www.w3.org/2000/svg"
   xmlns="http://www.w3.org/2000/svg"
   version="1.1"
   width="164.57001"
   height="244.31"
   id="svg3373"
   xml:space="preserve"><metadata
     id="metadata3379"><rdf:RDF><cc:Work
         rdf:about=""><dc:format>image/svg+xml</dc:format><dc:type
           rdf:resource="http://purl.org/dc/dcmitype/StillImage" /><dc:title></dc:title></cc:Work></rdf:RDF></metadata><defs
     id="defs3377"><clipPath
   id="clipPath3391"><path
     d="M 0,0 167,0 167,209 0,209 0,0 z"
     id="path3393" /></clipPath><clipPath
   id="clipPath3395"><path
     d="M 0,0 167,0 167,209 0,209 0,0 z"
     id="path3397" /></clipPath>
</defs><g
     transform="matrix(1.25,0,0,-1.25,-2.3219508,261.36432)"
     id="g3383" /><g
     transform="matrix(1.25,0,0,-1.25,-18.32195,253.36432)"
     id="g3385"
     style="fill:#ffffff;fill-opacity:1"><g
       transform="translate(0,-0.25119)"
       id="g3387"
       style="fill:#ffffff;fill-opacity:1"><g
         id="g3389"
         style="fill:#ffffff;fill-opacity:1" /><g
         id="g3399"
         style="fill:#ffffff;fill-opacity:1"><g
           clip-path="url(#clipPath3391)"
           id="g3401"
           style="fill:#ffffff;fill-opacity:1"><g
             id="g3403"
             style="fill:#ffffff;fill-opacity:1" /><g
             id="g3405"
             style="fill:#ffffff;fill-opacity:1"><g
               id="g3407"
               style="fill:#ffffff;fill-opacity:1"><g
                 id="g3409"
                 style="fill:#ffffff;fill-opacity:1" /><g
                 id="g3411"
                 style="fill:#ffffff;fill-opacity:1"><g
                   clip-path="url(#clipPath3395)"
                   id="g3413"
                   style="fill:#ffffff;fill-opacity:1"><g
                     id="g3415"
                     style="fill:#ffffff;fill-opacity:1" /><g
                     id="g3417"
                     style="fill:#ffffff;fill-opacity:1"><path
                       d="M 74.242,83.84 50.781,63.152 C 50.074,62.527 48.992,62.59 48.363,63.305 L 26.816,87.73 c -0.625,0.711 -0.558,1.797 0.153,2.422 l 23.457,20.692 c 0.711,0.625 1.797,0.558 2.426,-0.153 L 74.395,86.262 c 0.625,-0.715 0.554,-1.797 -0.153,-2.422 m 67.016,60.762 c -0.223,6.242 -5.024,4.246 -6.637,3.722 6.516,4.043 12.121,15.942 10.656,21.082 -1.144,4.008 -3.797,2.637 -7.027,-0.496 9.43,21.285 -4.531,32.711 -4.531,32.695 -2.407,1.583 -4.117,-0.543 -4.078,-3.707 0.484,-25.601 -18.231,-40.394 -38.664,-52.664 -15.364,-9.925 -20.801,-26.629 -22.688,-38.57 -0.469,-1.465 -1.574,-0.766 -2.105,-0.312 L 54.367,119.75 c -1.293,1.461 -3.109,2.176 -4.914,2.117 -1.398,-0.051 -2.789,-0.562 -3.918,-1.562 L 45,119.836 l -0.008,0.008 -0.008,-0.008 -2.855,3.234 c -0.844,0.957 -1.996,1.461 -3.117,1.473 -0.867,0.004 -1.715,-0.281 -2.391,-0.875 l -1.574,-1.387 c -1.551,-1.371 -1.598,-3.859 -0.098,-5.558 l 2.856,-3.235 -19.43,-17.133 c -2.59,-2.289 -2.84,-6.242 -0.551,-8.832 L 85.129,11.211 c 1.281,-1.453 3.09,-2.172 4.891,-2.113 1.406,0.043 2.8,0.558 3.937,1.558 l 27.16,23.957 c 2.59,2.285 2.836,6.239 0.551,8.828 L 98.895,69.266 c -0.012,0.019 -0.024,0.039 -0.036,0.058 -0.836,1.332 1.528,1.078 1.528,1.078 l 0.004,0.02 c 3.668,-0.121 6.406,0.73 8.343,2.035 2.95,1.984 -0.402,3.445 -0.922,4.883 4.547,-2.188 13.493,-0.324 15.719,2.551 1.739,2.242 -1.258,3.183 -4.117,3.824 7.219,3.355 12.977,6.703 16.066,14.664 1.813,4.664 -3.171,4.801 -8.136,2.922 4.051,4.054 8.117,9.586 10.14,16.668 2.293,8.019 -0.699,12.054 -7.16,6.644 5.879,5.758 11.16,13.399 10.934,19.989"
                       id="path3419"
                       style="fill:#ffffff;fill-opacity:1;fill-rule:nonzero;stroke:none" /></g></g></g></g></g></g></g></g></g></svg>