<?xml version="1.0" encoding="utf-8"?>
<!-- Generator: Adobe Illustrator 15.0.0, SVG Export Plug-In . SVG Version: 6.00 Build 0)  -->
<!DOCTYPE svg PUBLIC "-//W3C//DTD SVG 1.1//EN" "http://www.w3.org/Graphics/SVG/1.1/DTD/svg11.dtd">
<svg version="1.1" id="Layer_1" xmlns="http://www.w3.org/2000/svg" xmlns:xlink="http://www.w3.org/1999/xlink" x="0px" y="0px"
	 width="200px" height="200px" viewBox="0 0 200 200" enable-background="new 0 0 200 200" xml:space="preserve">
<g>
	<path fill-rule="evenodd" clip-rule="evenodd" fill="#CDCDCD" d="M158.981,132.587h-9.184c-0.523,0-1.148-0.426-1.148-1.277
		c0-0.205,0.625-0.635,1.148-0.635h9.184c0.523,0,1.146,0.43,1.146,0.635C160.127,132.162,159.504,132.587,158.981,132.587z
		 M39.601,128.761v6.375c0,1.645,1.633,3.191,3.361,3.191h117.63c1.729,0,3.363-1.547,3.363-3.191v-6.375H39.601z"/>
	<g>
		<path fill-rule="evenodd" clip-rule="evenodd" fill="#CDCDCD" d="M60.645,71.369h84.178v45.914H60.645V71.369z M150.563,69.109
			c0-2.895-2.57-5.393-5.545-5.393H58.536c-2.969,0-5.543,2.498-5.543,5.393v53.914h97.57V69.109z"/>
		<path fill="#CDCDCD" d="M99.864,195.72c-54.328,0-98.525-43.34-98.525-96.609c0-53.273,44.197-96.613,98.525-96.613
			c54.328,0,98.527,43.34,98.527,96.613C198.391,152.38,154.192,195.72,99.864,195.72z M99.864,10.15
			c-50.107,0-90.873,39.907-90.873,88.96c0,49.051,40.766,88.957,90.873,88.957c50.109,0,90.875-39.906,90.875-88.957
			C190.739,50.058,149.973,10.15,99.864,10.15z"/>
	</g>
</g>
</svg>
