<?xml version="1.0" encoding="utf-8"?>
<!-- Generator: Adobe Illustrator 15.0.0, SVG Export Plug-In . SVG Version: 6.00 Build 0)  -->
<!DOCTYPE svg PUBLIC "-//W3C//DTD SVG 1.1//EN" "http://www.w3.org/Graphics/SVG/1.1/DTD/svg11.dtd">
<svg version="1.1" id="Layer_1" xmlns="http://www.w3.org/2000/svg" xmlns:xlink="http://www.w3.org/1999/xlink" x="0px" y="0px"
	 width="200px" height="200px" viewBox="0 0 200 200" enable-background="new 0 0 200 200" xml:space="preserve">
<path fill="#CDCDCD" d="M99.534,197.271c-54.1,0-98.112-44.016-98.112-98.114c0-54.099,44.015-98.112,98.112-98.112
	c54.1,0,98.112,44.013,98.112,98.112C197.646,153.257,153.632,197.271,99.534,197.271z M99.534,8.815
	c-49.814,0-90.342,40.528-90.342,90.341c0,49.818,40.527,90.344,90.342,90.344s90.342-40.523,90.342-90.344
	C189.875,49.343,149.348,8.815,99.534,8.815z"/>
<rect x="148.613" y="86.38" fill="#CDCDCD" width="23.756" height="25.881"/>
<path fill="#CDCDCD" d="M148.943,84.787c-0.226-6.668-5.688-12.009-12.41-12.009c-6.11,0-97.112,0.162-97.112,0.162
	c-1.104,0-2,0.896-2,2l-2.967,24.145l2.967,24.618c0,1.104,0.896,2,2,2c0,0,91.002,0.162,97.112,0.162
	c6.724,0,12.186-5.342,12.41-12.01c0.009-0.07,0.021-0.14,0.021-0.211v-2.482V87.48v-2.482
	C148.966,84.926,148.952,84.857,148.943,84.787z"/>
<rect x="158.867" y="91.502" fill="#FFFFFF" width="3.593" height="3.236"/>
<rect x="158.867" y="103.861" fill="#FFFFFF" width="3.593" height="3.238"/>
<path fill="#CDCDCD" d="M39.759,83.269c0,1.104-0.896,2-2,2H21.232c-1.104,0-2-0.896-2-2v-1.076c0-1.104,0.896-2,2-2h16.527
	c1.104,0,2,0.896,2,2V83.269z"/>
</svg>
