<svg width="18" height="18" viewBox="0 0 18 18" fill="none" xmlns="http://www.w3.org/2000/svg">
<path fill-rule="evenodd" clip-rule="evenodd" d="M9.00001 6.87869L15.0151 0.863656C15.6008 0.27787 16.5506 0.27787 17.1364 0.863656C17.7222 1.44944 17.7222 2.39919 17.1364 2.98498L11.1213 9.00001L17.1364 15.0151C17.7222 15.6008 17.7222 16.5506 17.1364 17.1364C16.5506 17.7222 15.6008 17.7222 15.0151 17.1364L9.00001 11.1213L2.98498 17.1364C2.39919 17.7222 1.44944 17.7222 0.863656 17.1364C0.27787 16.5506 0.27787 15.6008 0.863656 15.0151L6.87869 9.00001L0.863656 2.98498C0.27787 2.39919 0.27787 1.44944 0.863656 0.863656C1.44944 0.27787 2.39919 0.27787 2.98498 0.863656L9.00001 6.87869Z" fill="currentColor"/>
</svg>
