<?xml version="1.0" encoding="utf-8"?>
<!-- Generator: Adobe Illustrator 15.0.0, SVG Export Plug-In . SVG Version: 6.00 Build 0)  -->
<!DOCTYPE svg PUBLIC "-//W3C//DTD SVG 1.1//EN" "http://www.w3.org/Graphics/SVG/1.1/DTD/svg11.dtd">
<svg xmlns="http://www.w3.org/2000/svg" viewBox="0 0 24 24" width="100%" height="100%" xml:space="preserve">
  <g fill="#DA4548" stroke="#CCCCCC"><path d="M12,0A12,12,0,1,1,0,12,12,12,0,0,1,12,0Zm2.42,12,3.94-3.93a1.71,1.71,0,0,0-2.43-2.42L12,9.58,8.07,5.65A1.71,1.71,0,0,0,5.64,8.07L9.58,12,5.64,15.93a1.72,1.72,0,0,0,2.43,2.43L12,14.42l3.93,3.94a1.72,1.72,0,0,0,2.43-2.43Z" fill-rule="evenodd"/></g>
</svg>
