<svg id="f52bdb46-dd60-4107-b163-3e305811e744" data-name="system icons" xmlns="http://www.w3.org/2000/svg" viewBox="0 0 24 24"><title>navicon-people</title><path d="M22.92,19.47a.66.66,0,0,1-.28.9.54.54,0,0,1-.3.08.66.66,0,0,1-.59-.36l-.16-.29c0,.53,0,1.07,0,1.45,0,.57.13,2.09-.76,2.09H4.59a1.07,1.07,0,0,1-1-1l.55-10.83-1,3a1.05,1.05,0,0,1-1,.7,1,1,0,0,1-.35-.06,1.07,1.07,0,0,1-.64-1.36l.81-2.27c.22-.62.44-1.24.65-1.85a4.72,4.72,0,0,1,1.1-2A2.61,2.61,0,0,1,5.2,6.94H7a2.67,2.67,0,0,1,1.59.69,4.6,4.6,0,0,1,1.09,2c0,.09.07.19.1.29a2.74,2.74,0,0,1,.68-1,2.42,2.42,0,0,1,1.45-.63H13.6A2.42,2.42,0,0,1,15.05,9a2.54,2.54,0,0,1,.88,1.55l.92,6.07a1.23,1.23,0,0,1,.57-.68,3.27,3.27,0,0,1,1.7-.41,3.23,3.23,0,0,1,1.69.41,1.11,1.11,0,0,1,.46.45.52.52,0,0,1,.12.17Zm-3.51-4.82a1.89,1.89,0,1,1,.06,0ZM6.31,5.84A2.23,2.23,0,0,1,4.08,3.6a2.22,2.22,0,1,1,4.44,0h0A2.24,2.24,0,0,1,6.31,5.84ZM13,7.15a2.29,2.29,0,1,1,2.26-2.29A2.28,2.28,0,0,1,13,7.15Z" fill="#a7a9ac" fill-rule="evenodd"/></svg>