<svg id="f34484c0-e37d-47ec-9eca-c3b7a998fc3b" data-name="system icons" xmlns="http://www.w3.org/2000/svg" viewBox="0 0 24 24"><title>navicon-reports</title><path d="M22,8.76a1.24,1.24,0,0,0-.52-1.08c-.26-.17-1-.6-1.47-.88v8a4,4,0,0,1-.38,1.9A2.86,2.86,0,0,1,18.1,18a8.62,8.62,0,0,1-1,.28l-.23.05a9.55,9.55,0,0,0-3.05,1.3c1.81-.55,5.1-.16,7.31.69.69.26.86-.09.86-.51C22,17.79,22,9.41,22,8.76Z" fill="#a7a9ac" fill-rule="evenodd"/><path d="M18,3.81a.83.83,0,0,0-.35-.61A1.4,1.4,0,0,0,17,3l-.32,0a3.05,3.05,0,0,0-1.07.22A6.62,6.62,0,0,0,14.18,4,7.46,7.46,0,0,0,13,5.13V17.81a12.12,12.12,0,0,1,3.38-1.39,9.4,9.4,0,0,0,1-.25.91.91,0,0,0,.49-.42,2.15,2.15,0,0,0,.15-1V4.88A9.56,9.56,0,0,0,18,3.81Z" fill="#a7a9ac" fill-rule="evenodd"/><path d="M2,8.76a1.24,1.24,0,0,1,.52-1.08c.26-.17,1-.6,1.47-.88v8a4,4,0,0,0,.38,1.9A2.86,2.86,0,0,0,5.9,18a8.62,8.62,0,0,0,1,.28l.23.05a9.55,9.55,0,0,1,3.05,1.3c-1.81-.55-5.1-.16-7.31.69-.69.26-.86-.09-.86-.51C2,17.79,2,9.41,2,8.76Z" fill="#a7a9ac" fill-rule="evenodd"/><path d="M6,3.81a.83.83,0,0,1,.35-.61A1.4,1.4,0,0,1,7,3l.32,0a3.05,3.05,0,0,1,1.07.22A6.62,6.62,0,0,1,9.82,4,7.46,7.46,0,0,1,11,5.13V17.81a12.12,12.12,0,0,0-3.38-1.39,9.4,9.4,0,0,1-1-.25.91.91,0,0,1-.49-.42,2.15,2.15,0,0,1-.15-1V4.88A9.56,9.56,0,0,1,6,3.81Z" fill="#a7a9ac" fill-rule="evenodd"/></svg>