<svg id="aa6f4206-4218-44f3-bf2c-df68fd86faf6" data-name="system icons" xmlns="http://www.w3.org/2000/svg" viewBox="0 0 24 24"><title>navicon-messages</title><path d="M19.94,7.87V11a5,5,0,0,1-5,5H10L7.29,18.32h0A3,3,0,0,0,9.11,19h.17l.28,0h5.07L18,21.78c.36.24,1,.24,1-.61V19a3,3,0,0,0,3-3V10.7A3,3,0,0,0,19.94,7.87Z" fill="#a7a9ac" fill-rule="evenodd"/><path d="M5.58,16.91A.87.87,0,0,0,6,16.78L9.32,14h5.62a3,3,0,0,0,3-3V5.77a3,3,0,0,0-3-3H5.05a3,3,0,0,0-3,3V11a3,3,0,0,0,3,3v2.14C5,16.72,5.28,16.91,5.58,16.91Z" fill="#a7a9ac" fill-rule="evenodd"/></svg>