<svg id="bd0cad0c-036c-44a3-8c69-b587c3d3d385" data-name="system icons" xmlns="http://www.w3.org/2000/svg" viewBox="0 0 24 24"><title>navicon-tasks</title><path d="M15,6A2.94,2.94,0,1,1,17.93,3,2.93,2.93,0,0,1,15,6Zm-9.8,6.63,1-3.24A1.11,1.11,0,0,1,7,8.43s2.76-1.09,3.94-1.58c.88-.36,3.6,0,4.21,1,0,0,2.12,3.62,2.12,3.62l3.42,1.11a1.12,1.12,0,0,1-.34,2.18,1,1,0,0,1-.35-.06L16.14,13.5a1.1,1.1,0,0,1-.62-.5L15,12c-.35.19-1.25.9-.72,3.22.29.8.67,1.58,1,2.37.14.32,2.27,4.65,2.27,4.65a1.12,1.12,0,0,1-.5,1.5,1.14,1.14,0,0,1-1.5-.5l-.45-.89c-.06,0-4.67-.05-6.26-.07l-.32.8A1.13,1.13,0,0,1,7,23.74a1.08,1.08,0,0,1-.42-.3,1.09,1.09,0,0,1-.2-1.16l1-2.37H8.81a2.89,2.89,0,0,0,1.06-.2,3.05,3.05,0,0,0,2-2.86v-3a3.07,3.07,0,0,0-1.35-2.54c0-.51.07-1.24.13-2l-2.2.87-.88,2.37h1.2a1.29,1.29,0,0,1,1.31,1.27v3a1.29,1.29,0,0,1-1.31,1.27H2.87a1.29,1.29,0,0,1-1.31-1.27v-3a1.29,1.29,0,0,1,1.31-1.27Z" fill="#a7a9ac" fill-rule="evenodd"/></svg>