<svg xmlns="http://www.w3.org/2000/svg" viewBox="0 0 30 30"><path d="M20.89,7.37c.66.46.55.83-.25.83h-.05v3.25a.28.28,0,0,1-.28.28H19.17a.33.33,0,0,1-.2-.3V10.25a.71.71,0,0,0-.19-.48.68.68,0,0,0-.58-.19.69.69,0,0,0-.54.68v1.05a.42.42,0,0,1-.22.42H16.32a.27.27,0,0,1-.28-.27V8.2h0c-.8,0-.91-.37-.25-.83l2.38-1.73a.32.32,0,0,1,.39,0ZM13,12c.83.58.68,1-.32,1h-.06V17.1a.36.36,0,0,1-.35.36H10.84a.4.4,0,0,1-.24-.37V15.59a.85.85,0,0,0-.24-.59.82.82,0,0,0-.73-.24.86.86,0,0,0-.69.85v1.32c0,.29-.11.46-.27.52H7.27a.35.35,0,0,1-.35-.35V13H6.86c-1,0-1.15-.47-.33-1l3-2.17a.39.39,0,0,1,.48,0Zm10,4.9c1,.68.81,1.24-.38,1.24h-.07v4.79a.41.41,0,0,1-.41.41H20.5a.47.47,0,0,1-.29-.43V21.13a1,1,0,0,0-.29-.7,1,1,0,0,0-.86-.28,1,1,0,0,0-.8,1V22.7c0,.34-.13.54-.32.61H16.29a.41.41,0,0,1-.41-.41V18.12h-.07c-1.18,0-1.35-.56-.38-1.24L19,14.33a.5.5,0,0,1,.57,0ZM17.68,27.36a.85.85,0,0,1,.75.94.84.84,0,0,1-.84.76H17.5a6.18,6.18,0,0,1-3-1.18.87.87,0,0,1-.21-1.19.84.84,0,0,1,1.18-.21A4.52,4.52,0,0,0,17.68,27.36Zm-7.39-5.22A12.91,12.91,0,0,1,12.73,24a.88.88,0,0,1,0,1.22.87.87,0,0,1-.61.26.85.85,0,0,1-.58-.23l0,0a11,11,0,0,0-2.11-1.58.86.86,0,0,1-.3-1.17A.85.85,0,0,1,10.29,22.14Zm13,3.36a.83.83,0,0,1,1.18.15.88.88,0,0,1-.14,1.21,11.09,11.09,0,0,1-2.68,1.53.89.89,0,0,1-.31.06.84.84,0,0,1-.79-.54A.86.86,0,0,1,21,26.8,9,9,0,0,0,23.26,25.5ZM6.94,20.3a.86.86,0,0,1,.32,1.17.87.87,0,0,1-.74.43.81.81,0,0,1-.42-.12L6,21.73A14.29,14.29,0,0,1,3.63,20a.86.86,0,0,1-.06-1.21.83.83,0,0,1,1.19-.06,12.37,12.37,0,0,0,2.09,1.5Zm21.63-6.6a9.21,9.21,0,0,1,.25,3.15.84.84,0,0,1-.84.78h-.07a.84.84,0,0,1-.77-.92c0-.25,0-.5,0-.74a7.17,7.17,0,0,0-.23-1.83.87.87,0,0,1,.6-1.05A.84.84,0,0,1,28.57,13.7Zm-1.16,6a.85.85,0,0,1,.53,1.08c-.34,1-.72,1.95-1.05,2.74a.85.85,0,0,1-.78.53.93.93,0,0,1-.33-.07.86.86,0,0,1-.45-1.12c.32-.77.69-1.69,1-2.63A.83.83,0,0,1,27.41,19.71ZM14.62,3.46a.83.83,0,0,1-.81-.61.84.84,0,0,1,.56-1.06,14.27,14.27,0,0,1,3-.62.86.86,0,0,1,.14,1.71,13,13,0,0,0-2.61.55A1,1,0,0,1,14.62,3.46Zm6.13-.07a.86.86,0,0,1-.4-1.14.84.84,0,0,1,1.12-.41A5.8,5.8,0,0,1,23.93,4L24,4a.86.86,0,0,1-.29,1.17.88.88,0,0,1-.43.12.85.85,0,0,1-.73-.42A4.11,4.11,0,0,0,20.75,3.39Zm-16.32,7a.84.84,0,0,1-.7.37.81.81,0,0,1-.47-.14A.86.86,0,0,1,3,9.4,14.51,14.51,0,0,1,5,7.06a.83.83,0,0,1,1.19,0,.86.86,0,0,1,0,1.21A12.77,12.77,0,0,0,4.43,10.36Zm19.32-2a.86.86,0,0,1,.48-1.11.84.84,0,0,1,1.09.48c0,.07.05.13.08.19a11.89,11.89,0,0,0,1.26,2.11.86.86,0,0,1-.2,1.19.82.82,0,0,1-.49.16.87.87,0,0,1-.69-.36,14.73,14.73,0,0,1-1.44-2.42ZM2.37,12.53a.87.87,0,0,1,.63,1,5.79,5.79,0,0,0-.17,1.34,4.73,4.73,0,0,0,.1.93A1,1,0,0,0,3,16a.85.85,0,0,1-.61,1,.76.76,0,0,1-.21,0,.85.85,0,0,1-.82-.64l-.06-.24a6.88,6.88,0,0,1-.13-1.29,7.5,7.5,0,0,1,.21-1.73A.85.85,0,0,1,2.37,12.53ZM8.56,6.19a.86.86,0,0,1-.72-.41A.87.87,0,0,1,8.11,4.6a25.6,25.6,0,0,1,2.6-1.41.84.84,0,0,1,1.12.42.86.86,0,0,1-.41,1.14A22.17,22.17,0,0,0,9,6.06.78.78,0,0,1,8.56,6.19Z" fill="#c2892b" fill-rule="evenodd"/></svg>