<svg xmlns="http://www.w3.org/2000/svg" viewBox="0 0 30 30"><g><path d="M24.45,8H20.38V4.57a1.44,1.44,0,0,0-1.44-1.44H10.63A1.44,1.44,0,0,0,9.19,4.57V8H5.13A1.45,1.45,0,0,0,3.69,9.44V26.06A1.44,1.44,0,0,0,5.13,27.5H24.45a1.44,1.44,0,0,0,1.44-1.44V9.44A1.45,1.45,0,0,0,24.45,8Zm-16,16.77H6.08V22.4H8.45Zm0-4H6.08V18.43H8.45Zm0-4H6.08V14.47H8.45Zm0-4H6.08V10.5H8.45Zm5,12H11.1V22.48h2.37Zm0-4.05H11.1V18.43h2.37Zm0-4H11.1V14.47h2.37Zm2.32-5.14h-2V9.64h-2v-2h2V5.58h2V7.64h2.06v2H15.79Zm2.7,13.07H16.12V22.4h2.37Zm0-4H16.12V18.43h2.37Zm0-4H16.12V14.47h2.37Zm5,7.93H21.13V22.4h2.38Zm0-4H21.13V18.43h2.38Zm0-4H21.13V14.47h2.38Zm0-4H21.13V10.5h2.38Z" fill="#436e84"/></g></svg>