<?xml version="1.0" encoding="UTF-8"?>
<svg width="30px" height="30px" viewBox="0 0 30 30" version="1.1" xmlns="http://www.w3.org/2000/svg" xmlns:xlink="http://www.w3.org/1999/xlink">
    <!-- Generator: Sketch 46.2 (44496) - http://www.bohemiancoding.com/sketch -->
    <title>icon/places/icon-district</title>
    <desc>Created with Sketch.</desc>
    <defs>
        <path d="M21.8362828,22.1199132 C21.8373644,21.7931694 22.1056095,21.5296319 22.4351471,21.5310603 C22.4416369,21.5310603 22.4477661,21.5310603 22.4542559,21.5314174 L23.8318962,21.5314174 C24.1614338,21.5314174 24.4285972,21.7960262 24.4285972,22.1224128 L24.4285972,23.4868803 C24.4285972,23.8132669 24.1614338,24.0778757 23.8318962,24.0778757 L22.4542559,24.0778757 C22.1247183,24.0778757 21.8575549,23.8132669 21.8575549,23.4868803 L21.8362828,22.1199132 Z M21.8362828,17.8747447 C21.8362828,17.5483581 22.1034462,17.2837492 22.4329838,17.2837492 L23.8109846,17.2837492 C24.1405222,17.2837492 24.4076856,17.5483581 24.4076856,17.8747447 L24.4076856,19.2395692 C24.4076856,19.5663129 24.1405222,19.8309217 23.8109846,19.8309217 L22.4542559,19.8309217 C22.1247183,19.8309217 21.8575549,19.5663129 21.8575549,19.2395692 L21.8362828,17.8747447 Z M21.8362828,13.6302904 C21.8362828,13.3039038 22.1034462,13.0389379 22.4329838,13.0389379 L23.8109846,13.0389379 C24.1405222,13.0389379 24.4076856,13.3039038 24.4076856,13.6302904 L24.4076856,14.9947578 C24.4076856,15.3211444 24.1405222,15.5857533 23.8109846,15.5857533 L22.4542559,15.5857533 C22.1247183,15.5857533 21.8575549,15.3211444 21.8575549,14.9947578 L21.8362828,13.6302904 Z M18.4183217,15.0704624 C18.4183217,15.396849 18.1507977,15.6614578 17.8212601,15.6614578 L16.4540757,15.6614578 C16.1241775,15.6614578 15.8573746,15.396849 15.8573746,15.0704624 L15.8573746,13.7006385 C15.8573746,13.3742519 16.1241775,13.109643 16.4540757,13.109643 L17.8320764,13.109643 C18.1572875,13.1149995 18.4183217,13.3781799 18.4183217,13.7006385 L18.4183217,15.0704624 Z M18.4183217,19.2370695 C18.4183217,19.5634561 18.1507977,19.828065 17.8212601,19.828065 L16.4540757,19.828065 C16.1241775,19.828065 15.8573746,19.5634561 15.8573746,19.2370695 L15.8573746,17.872245 C15.8573746,17.5458584 16.1241775,17.2812496 16.4540757,17.2812496 L17.8320764,17.2812496 C18.1572875,17.2869631 18.4183217,17.5497865 18.4183217,17.872245 L18.4183217,19.2370695 Z M18.4183217,23.4815238 C18.4183217,23.8082675 18.1507977,24.0728763 17.8212601,24.0728763 L16.4540757,24.0728763 C16.1241775,24.0728763 15.8573746,23.8082675 15.8573746,23.4815238 L15.8573746,22.1170564 C15.860259,21.7928124 16.1263408,21.5314174 16.4540757,21.5314174 L17.8320764,21.5314174 C18.1551242,21.5367738 18.4154373,21.7967404 18.4183217,22.1170564 L18.4183217,23.4815238 Z M15.4759186,11.0363382 L14.5240814,11.0363382 C14.2338431,11.0363382 13.9984076,10.803511 13.9984076,10.5156908 L13.9984076,8.85911811 L12.3262026,8.85911811 C12.0356038,8.85911811 11.8001683,8.62629091 11.8001683,8.33847077 L11.8001683,7.38252225 C11.8001683,7.09505921 12.0356038,6.8618749 12.3262026,6.8618749 L13.985428,6.8618749 L13.985428,5.20565927 C13.985428,4.91819623 14.220503,4.68501193 14.5111018,4.68501193 L15.4625785,4.68501193 C15.7531773,4.68501193 15.9886128,4.91819623 15.9886128,5.20565927 L15.9886128,6.84866231 L17.6478382,6.84866231 C17.9380765,6.84866231 18.1738725,7.08220372 18.1738725,7.36966676 L18.1738725,8.31240269 C18.1738725,8.60022283 17.9380765,8.83340713 17.6478382,8.83340713 L16.0149325,8.83340713 L16.0149325,10.4767673 C16.0369258,10.763159 15.819878,11.013484 15.5303608,11.0352669 C15.5123336,11.0366953 15.4939459,11.0370524 15.4759186,11.0363382 L15.4759186,11.0363382 Z M14.1429859,15.0704624 C14.1429859,15.396849 13.8758225,15.6614578 13.5459243,15.6614578 L12.1682841,15.6614578 C11.8405492,15.6557443 11.5791545,15.3893499 11.5820389,15.0651059 L11.5820389,13.7006385 C11.5820389,13.3742519 11.8492023,13.109643 12.1787399,13.109643 L13.5563801,13.109643 C13.8862783,13.109643 14.1534417,13.3742519 14.1534417,13.7006385 L14.1429859,15.0704624 Z M14.1429859,19.2370695 C14.1429859,19.5634561 13.8758225,19.828065 13.5459243,19.828065 L12.1682841,19.828065 C11.8427125,19.8223514 11.5820389,19.5595281 11.5820389,19.2370695 L11.5820389,17.872245 C11.5820389,17.5458584 11.8492023,17.2812496 12.1787399,17.2812496 L13.5563801,17.2812496 C13.8862783,17.2812496 14.1534417,17.5458584 14.1534417,17.872245 L14.1429859,19.2370695 Z M14.1429859,23.4815238 C14.1429859,23.8082675 13.8758225,24.0728763 13.5459243,24.0728763 L12.1682841,24.0728763 C11.8427125,24.0671628 11.5820389,23.8043394 11.5820389,23.4815238 L11.5820389,22.1170564 C11.5845627,21.7967404 11.8448758,21.5367738 12.1682841,21.5314174 L13.5459243,21.5314174 C13.8758225,21.5314174 14.1429859,21.7960262 14.1429859,22.1224128 L14.1429859,23.4815238 Z M8.14316618,10.7470897 C8.14316618,11.0738334 7.87564222,11.3387993 7.54574407,11.3387993 L6.16810384,11.3387993 C5.83856624,11.3387993 5.57140282,11.0738334 5.57140282,10.7470897 L5.57140282,9.38262223 C5.57140282,9.05623563 5.83856624,8.79162679 6.16810384,8.79162679 L7.54574407,8.79162679 C7.87564222,8.79162679 8.14316618,9.05623563 8.14316618,9.38262223 L8.14316618,10.7470897 Z M8.14316618,14.9922581 C8.14316618,15.3186447 7.87564222,15.5832536 7.54574407,15.5832536 L6.16810384,15.5832536 C5.83856624,15.5832536 5.57140282,15.3186447 5.57140282,14.9922581 L5.57140282,13.6277907 C5.57140282,13.301047 5.83856624,13.0364382 6.16810384,13.0364382 L7.54574407,13.0364382 C7.87564222,13.0364382 8.14316618,13.301047 8.14316618,13.6277907 L8.14316618,14.9922581 Z M8.14316618,19.2370695 C8.14316618,19.5634561 7.87564222,19.828065 7.54574407,19.828065 L6.16810384,19.828065 C5.83856624,19.828065 5.57140282,19.5634561 5.57140282,19.2370695 L5.57140282,17.872245 C5.57140282,17.5458584 5.83856624,17.2812496 6.16810384,17.2812496 L7.54574407,17.2812496 C7.87564222,17.2812496 8.14316618,17.5458584 8.14316618,17.872245 L8.14316618,19.2370695 Z M8.14316618,23.4815238 C8.14316618,23.8082675 7.87564222,24.0728763 7.54574407,24.0728763 L6.16810384,24.0728763 C5.83856624,24.0728763 5.57140282,23.8082675 5.57140282,23.4815238 L5.57140282,22.1170564 C5.57428717,21.7928124 5.8407295,21.5314174 6.16810384,21.5314174 L7.54574407,21.5314174 C7.87564222,21.5314174 8.14316618,21.7960262 8.14316618,22.1224128 L8.14316618,23.4815238 Z M19.845717,2 L10.154283,2 C9.51684043,2 8.99981973,2.51171992 8.99981973,3.14306732 L8.99981973,6.24481138 L4.1541027,6.24481138 C3.51666016,6.24481138 3,6.7568884 3,7.3878787 L3,25.8569327 C3,26.487923 3.51666016,27 4.1541027,27 L25.8458973,27 C26.4837004,27 27,26.487923 27,25.8569327 L27,11.6355469 C27,11.0038424 26.4837004,10.4921224 25.8458973,10.4921224 L21.0001803,10.4921224 L21.0001803,3.14306732 C21.0001803,2.51171992 20.4831596,2 19.845717,2 L19.845717,2 Z" id="path-1"></path>
    </defs>
    <g id="Symbols" stroke="none" stroke-width="1" fill="none" fill-rule="evenodd">
        <g id="icon/places/icon-district">
            <mask id="mask-2" fill="white">
                <use xlink:href="#path-1"></use>
            </mask>
            <use id="district" fill="#63A2C7" xlink:href="#path-1"></use>
            <g id="color/13-blue" mask="url(#mask-2)">
                <g transform="translate(-5.000000, -5.000000)"></g>
            </g>
        </g>
    </g>
</svg>