<svg width="30" height="30" viewBox="0 0 30 30" xmlns="http://www.w3.org/2000/svg"><path d="M21.8 22.1C21.8 21.8 22.1 21.5 22.4 21.5 22.4 21.5 22.4 21.5 22.5 21.5L23.8 21.5C24.2 21.5 24.4 21.8 24.4 22.1L24.4 23.5C24.4 23.8 24.2 24.1 23.8 24.1L22.5 24.1C22.1 24.1 21.9 23.8 21.9 23.5L21.8 22.1ZM21.8 17.9C21.8 17.5 22.1 17.3 22.4 17.3L23.8 17.3C24.1 17.3 24.4 17.5 24.4 17.9L24.4 19.2C24.4 19.6 24.1 19.8 23.8 19.8L22.5 19.8C22.1 19.8 21.9 19.6 21.9 19.2L21.8 17.9ZM21.8 13.6C21.8 13.3 22.1 13 22.4 13L23.8 13C24.1 13 24.4 13.3 24.4 13.6L24.4 15C24.4 15.3 24.1 15.6 23.8 15.6L22.5 15.6C22.1 15.6 21.9 15.3 21.9 15L21.8 13.6ZM18.4 15.1C18.4 15.4 18.2 15.7 17.8 15.7L16.5 15.7C16.1 15.7 15.9 15.4 15.9 15.1L15.9 13.7C15.9 13.4 16.1 13.1 16.5 13.1L17.8 13.1C18.2 13.1 18.4 13.4 18.4 13.7L18.4 15.1ZM18.4 19.2C18.4 19.6 18.2 19.8 17.8 19.8L16.5 19.8C16.1 19.8 15.9 19.6 15.9 19.2L15.9 17.9C15.9 17.5 16.1 17.3 16.5 17.3L17.8 17.3C18.2 17.3 18.4 17.5 18.4 17.9L18.4 19.2ZM18.4 23.5C18.4 23.8 18.2 24.1 17.8 24.1L16.5 24.1C16.1 24.1 15.9 23.8 15.9 23.5L15.9 22.1C15.9 21.8 16.1 21.5 16.5 21.5L17.8 21.5C18.2 21.5 18.4 21.8 18.4 22.1L18.4 23.5ZM15.5 11L14.5 11C14.2 11 14 10.8 14 10.5L14 8.9 12.3 8.9C12 8.9 11.8 8.6 11.8 8.3L11.8 7.4C11.8 7.1 12 6.9 12.3 6.9L14 6.9 14 5.2C14 4.9 14.2 4.7 14.5 4.7L15.5 4.7C15.8 4.7 16 4.9 16 5.2L16 6.8 17.6 6.8C17.9 6.8 18.2 7.1 18.2 7.4L18.2 8.3C18.2 8.6 17.9 8.8 17.6 8.8L16 8.8 16 10.5C16 10.8 15.8 11 15.5 11 15.5 11 15.5 11 15.5 11L15.5 11ZM14.1 15.1C14.1 15.4 13.9 15.7 13.5 15.7L12.2 15.7C11.8 15.7 11.6 15.4 11.6 15.1L11.6 13.7C11.6 13.4 11.8 13.1 12.2 13.1L13.6 13.1C13.9 13.1 14.2 13.4 14.2 13.7L14.1 15.1ZM14.1 19.2C14.1 19.6 13.9 19.8 13.5 19.8L12.2 19.8C11.8 19.8 11.6 19.6 11.6 19.2L11.6 17.9C11.6 17.5 11.8 17.3 12.2 17.3L13.6 17.3C13.9 17.3 14.2 17.5 14.2 17.9L14.1 19.2ZM14.1 23.5C14.1 23.8 13.9 24.1 13.5 24.1L12.2 24.1C11.8 24.1 11.6 23.8 11.6 23.5L11.6 22.1C11.6 21.8 11.8 21.5 12.2 21.5L13.5 21.5C13.9 21.5 14.1 21.8 14.1 22.1L14.1 23.5ZM8.1 10.7C8.1 11.1 7.9 11.3 7.5 11.3L6.2 11.3C5.8 11.3 5.6 11.1 5.6 10.7L5.6 9.4C5.6 9.1 5.8 8.8 6.2 8.8L7.5 8.8C7.9 8.8 8.1 9.1 8.1 9.4L8.1 10.7ZM8.1 15C8.1 15.3 7.9 15.6 7.5 15.6L6.2 15.6C5.8 15.6 5.6 15.3 5.6 15L5.6 13.6C5.6 13.3 5.8 13 6.2 13L7.5 13C7.9 13 8.1 13.3 8.1 13.6L8.1 15ZM8.1 19.2C8.1 19.6 7.9 19.8 7.5 19.8L6.2 19.8C5.8 19.8 5.6 19.6 5.6 19.2L5.6 17.9C5.6 17.5 5.8 17.3 6.2 17.3L7.5 17.3C7.9 17.3 8.1 17.5 8.1 17.9L8.1 19.2ZM8.1 23.5C8.1 23.8 7.9 24.1 7.5 24.1L6.2 24.1C5.8 24.1 5.6 23.8 5.6 23.5L5.6 22.1C5.6 21.8 5.8 21.5 6.2 21.5L7.5 21.5C7.9 21.5 8.1 21.8 8.1 22.1L8.1 23.5ZM19.8 2L10.2 2C9.5 2 9 2.5 9 3.1L9 6.2 4.2 6.2C3.5 6.2 3 6.8 3 7.4L3 25.9C3 26.5 3.5 27 4.2 27L25.8 27C26.5 27 27 26.5 27 25.9L27 11.6C27 11 26.5 10.5 25.8 10.5L21 10.5 21 3.1C21 2.5 20.5 2 19.8 2L19.8 2Z" fill="#63A2C7"/></svg>