<svg xmlns="http://www.w3.org/2000/svg" viewBox="0 0 30 30"><path d="M23.83,14.09v-1h-1v-1h-1v1h-1v1h1v1h1v-1ZM17,3.07c1.07.74.89,1.34-.42,1.34h-.08V9.63a.45.45,0,0,1-.45.45H14.22a.53.53,0,0,1-.31-.47V7.7a1.1,1.1,0,0,0-.32-.77,1.08,1.08,0,0,0-.95-.3,1.11,1.11,0,0,0-.88,1.09V9.41c0,.37-.15.59-.35.66H9.59a.45.45,0,0,1-.45-.45V4.41H9.06c-1.31,0-1.49-.6-.42-1.34L12.52.29a.53.53,0,0,1,.63,0ZM10.94,13.59c1.29.89,1.07,1.62-.5,1.62h-.1v6.28A.54.54,0,0,1,9.8,22H7.56a.63.63,0,0,1-.38-.57v-2.3a1.3,1.3,0,0,0-1.52-1.28A1.32,1.32,0,0,0,4.6,19.19v2a.77.77,0,0,1-.43.8H2a.54.54,0,0,1-.54-.54V15.21h-.1c-1.57,0-1.79-.73-.5-1.62l4.67-3.35a.66.66,0,0,1,.76,0Zm11.4-4.47h.23a4,4,0,0,1,2.21.5,2.55,2.55,0,0,1,.95,1.3c.41,1,.82,1.92,1.22,2.89L28.3,17l.42,1a1,1,0,0,1-.51,1.34,1.09,1.09,0,0,1-.39.08,1,1,0,0,1-.91-.61l-2.15-5.1,2.55,12.77H25l-.14,2.63a.9.9,0,0,1-1.79,0l-.14-2.63h-1.1l-.14,2.63a.9.9,0,0,1-.94.87.91.91,0,0,1-.84-.87l-.14-2.63H17.38l2.54-12.77-2.14,5.1a1,1,0,0,1-.91.61,1.09,1.09,0,0,1-.39-.08A1,1,0,0,1,16,18c.14-.33.28-.65.41-1l1.36-3.21c.4-1,.81-1.93,1.21-2.89a2.57,2.57,0,0,1,1-1.3,4,4,0,0,1,2.21-.5h.22a2.48,2.48,0,1,1,2.49-2.48,2.48,2.48,0,0,1-2.49,2.48Z" fill="#c2892b" fill-rule="evenodd"/></svg>