<svg width="30" height="30" viewBox="0 0 30 30" xmlns="http://www.w3.org/2000/svg"><path d="M16.92,14.25a3,3,0,0,0,1.27-.05,4.12,4.12,0,0,0,2-1s.07-.07.08-.12a.28.28,0,0,0,0-.2,1.84,1.84,0,0,0-.9-.82,2.81,2.81,0,0,0-1.22-.22,3.29,3.29,0,0,0-1.5.4,1.49,1.49,0,0,0,0-.21,1.33,1.33,0,1,0-1.33,1.32,1.28,1.28,0,0,0,.59-.14s0,.07,0,.11C15.94,13.82,16.49,14.15,16.92,14.25ZM13,21.49a1.75,1.75,0,1,0-1.75-1.75A1.75,1.75,0,0,0,13,21.49Zm15.09,3.3a.59.59,0,0,1-.51.68h-.1a.6.6,0,0,1-.61-.49,9.76,9.76,0,0,0-.7-2.06s-.07,4.76-.18,6.28a.74.74,0,0,1-.74.68H14.68c.09-1.28.15-5.4.15-5.4a6.76,6.76,0,0,1,.59,1.66.51.51,0,0,0,.51.41H16a.5.5,0,0,0,.43-.57c-.09-.48-.57-2.9-1.45-3.54A3.52,3.52,0,0,0,13.07,22a4.39,4.39,0,0,0-2,.4C10.09,23,9.65,25.31,9.54,26a.5.5,0,0,0,.44.56h.08a.53.53,0,0,0,.52-.42,4.65,4.65,0,0,1,.58-1.65s.05,4.1.14,5.39H5.69a1.52,1.52,0,0,1-1.5-1.37l.94-18.14-.3,1.47c-.21,1-.41,2-.61,2.93-.15.72-.31,1.45-.46,2.18a1.05,1.05,0,0,1-1,.88,1.08,1.08,0,0,1-1-.83,2.52,2.52,0,0,1,.09-1c.08-.38.15-.77.23-1.15.19-1,.38-2,.58-2.92.13-.68.26-1.36.4-2,0-.05,0-.09,0-.13a4,4,0,0,1,3.5-3H9a3.94,3.94,0,0,1,3.49,3s.29,1.59.29,1.59c.19-.73.58-1.94.58-1.94a2.07,2.07,0,0,1,2.32-1.33h3.2a2.35,2.35,0,0,1,2.35,1.37s1.09,3.58.9,4.43c-.1.47-.91,1.17-1.72,1.63l.82,5.39a2,2,0,0,1,.43-.4A5.22,5.22,0,0,1,24.09,20a4.25,4.25,0,0,1,2.29.51C27.42,21.32,28,24.22,28.1,24.79Zm-4-5.25a2,2,0,1,1,2-2A2,2,0,0,1,24.15,19.54ZM17.44,7.46A2.46,2.46,0,1,1,19.9,5,2.46,2.46,0,0,1,17.44,7.46ZM7.77,5.72A2.42,2.42,0,1,1,10.18,3.3,2.42,2.42,0,0,1,7.77,5.72Z" fill="#f47963" fill-rule="evenodd"/></svg>