<svg xmlns="http://www.w3.org/2000/svg" viewBox="0 0 30 30"><path d="M6,14v1H7V14h1V13H7V12H6v1H5v1ZM15.65.2a.56.56,0,0,1,.63,0L20.16,3c1.07.74.88,1.34-.42,1.34h-.08V9.54a.45.45,0,0,1-.45.45H17.39A.66.66,0,0,1,17,9.32V7.64a1.1,1.1,0,0,0-.89-1.09,1,1,0,0,0-.94.3,1.07,1.07,0,0,0-.32.76V9.52a.53.53,0,0,1-.32.48H12.72a.45.45,0,0,1-.45-.45V4.33h-.08c-1.31,0-1.49-.6-.42-1.34Zm6.88,10a.66.66,0,0,1,.76,0L28,13.51c1.29.89,1.07,1.61-.5,1.61h-.1V21.4a.54.54,0,0,1-.54.54h-2.2a.78.78,0,0,1-.42-.8v-2a1.32,1.32,0,0,0-1.06-1.31,1.25,1.25,0,0,0-1.14.36,1.3,1.3,0,0,0-.38.92v2.3a.64.64,0,0,1-.38.57H19a.54.54,0,0,1-.54-.54V15.12h-.1c-1.57,0-1.8-.72-.5-1.61ZM6.45,9A2.48,2.48,0,1,1,8.94,6.56,2.48,2.48,0,0,1,6.45,9h.23a4,4,0,0,1,2.21.5,2.63,2.63,0,0,1,1,1.3l1.21,2.88,1.35,3.22.42,1a1,1,0,0,1-.51,1.33.92.92,0,0,1-.39.09,1,1,0,0,1-.91-.61L8.87,13.62,11.42,26.4H9.07L8.93,29a.89.89,0,0,1-.84.87.91.91,0,0,1-1-.87L7,26.4H5.91L5.76,29A.89.89,0,0,1,4,29L3.84,26.4H1.49L4,13.62,1.89,18.73a1,1,0,0,1-.91.61.92.92,0,0,1-.39-.09,1,1,0,0,1-.51-1.33l.41-1,1.36-3.22,1.21-2.88a2.57,2.57,0,0,1,1-1.3A4,4,0,0,1,6.23,9Z" fill="#c2892b" fill-rule="evenodd"/></svg>