<svg xmlns="http://www.w3.org/2000/svg" viewBox="0 0 30 30"><path d="M19.85,2.5h-9.7A1.15,1.15,0,0,0,9,3.64v3.1H4.15A1.16,1.16,0,0,0,3,7.89V26.36A1.15,1.15,0,0,0,4.15,27.5h21.7A1.15,1.15,0,0,0,27,26.36V12.14A1.15,1.15,0,0,0,25.85,11H21V3.64A1.15,1.15,0,0,0,19.85,2.5ZM8.14,24a.58.58,0,0,1-.59.59H6.17a.59.59,0,0,1-.6-.59V22.62a.59.59,0,0,1,.6-.59H7.55a.59.59,0,0,1,.59.59Zm0-4.24a.59.59,0,0,1-.59.59H6.17a.6.6,0,0,1-.6-.59V18.37a.6.6,0,0,1,.6-.59H7.55a.59.59,0,0,1,.59.59Zm0-4.25a.58.58,0,0,1-.59.59H6.17a.59.59,0,0,1-.6-.59V14.13a.59.59,0,0,1,.6-.59H7.55a.58.58,0,0,1,.59.59Zm0-4.24a.59.59,0,0,1-.59.59H6.17a.6.6,0,0,1-.6-.59V9.88a.6.6,0,0,1,.6-.59H7.55a.59.59,0,0,1,.59.59Zm6,12.73a.58.58,0,0,1-.59.59H12.17a.59.59,0,0,1-.59-.59V22.62a.6.6,0,0,1,.59-.59h1.38a.59.59,0,0,1,.59.59Zm0-4.24a.59.59,0,0,1-.59.59H12.17a.6.6,0,0,1-.59-.59V18.37a.6.6,0,0,1,.6-.59h1.38a.59.59,0,0,1,.59.59Zm0-4.17a.58.58,0,0,1-.59.59H12.17a.59.59,0,0,1-.59-.59V14.2a.59.59,0,0,1,.6-.59h1.38a.58.58,0,0,1,.59.59Zm1.34-4h-1A.52.52,0,0,1,14,11V9.36H12.33a.52.52,0,0,1-.53-.52v-1a.53.53,0,0,1,.53-.52H14V5.71a.52.52,0,0,1,.52-.52h1a.52.52,0,0,1,.53.52V7.35h1.66a.52.52,0,0,1,.52.52v.94a.52.52,0,0,1-.52.52H16V11a.52.52,0,0,1-.48.56ZM18.42,24a.59.59,0,0,1-.6.59H16.45a.58.58,0,0,1-.59-.59V22.62a.59.59,0,0,1,.59-.59h1.38a.6.6,0,0,1,.59.59Zm0-4.24a.6.6,0,0,1-.6.59H16.45a.59.59,0,0,1-.59-.59V18.37a.59.59,0,0,1,.59-.59h1.38a.6.6,0,0,1,.59.59Zm0-4.17a.59.59,0,0,1-.6.59H16.45a.58.58,0,0,1-.59-.59V14.2a.58.58,0,0,1,.59-.59h1.38a.59.59,0,0,1,.59.59Zm3.42-1.44a.58.58,0,0,1,.59-.59h1.38a.59.59,0,0,1,.6.59v1.36a.6.6,0,0,1-.6.6H22.45a.59.59,0,0,1-.59-.6Zm0,4.24a.59.59,0,0,1,.59-.59h1.38a.6.6,0,0,1,.6.59v1.37a.59.59,0,0,1-.6.59H22.45a.58.58,0,0,1-.59-.59Zm0,4.25a.59.59,0,0,1,.6-.59h1.39a.6.6,0,0,1,.6.59V24a.6.6,0,0,1-.6.59H22.45a.59.59,0,0,1-.59-.59Z" fill="#436e84" fill-rule="evenodd"/></svg>