<?xml version="1.0" encoding="UTF-8" standalone="no"?>
<!-- Created with Inkscape (http://www.inkscape.org/) -->

<svg
		xmlns:dc="http://purl.org/dc/elements/1.1/"
		xmlns:cc="http://creativecommons.org/ns#"
		xmlns:rdf="http://www.w3.org/1999/02/22-rdf-syntax-ns#"
		xmlns:svg="http://www.w3.org/2000/svg"
		xmlns="http://www.w3.org/2000/svg"
		xmlns:sodipodi="http://sodipodi.sourceforge.net/DTD/sodipodi-0.dtd"
		xmlns:inkscape="http://www.inkscape.org/namespaces/inkscape"
		width="75.459518mm"
		height="33.262501mm"
		viewBox="0 0 75.459518 33.262501"
		version="1.1"
		id="svg8"
		inkscape:version="0.92.3 (2405546, 2018-03-11)"
		sodipodi:docname="medic.logo.Jun.2021.svg">
	<defs
			id="defs2" />
	<sodipodi:namedview
			id="base"
			pagecolor="#ffffff"
			bordercolor="#666666"
			borderopacity="1.0"
			inkscape:pageopacity="0.0"
			inkscape:pageshadow="2"
			inkscape:zoom="0.35"
			inkscape:cx="142.60067"
			inkscape:cy="62.858261"
			inkscape:document-units="mm"
			inkscape:current-layer="layer1"
			showgrid="false"
			fit-margin-top="0"
			fit-margin-left="0"
			fit-margin-right="0"
			fit-margin-bottom="0"
			inkscape:window-width="1601"
			inkscape:window-height="1105"
			inkscape:window-x="4484"
			inkscape:window-y="1746"
			inkscape:window-maximized="0" />
	<metadata
			id="metadata5">
		<rdf:RDF>
			<cc:Work
					rdf:about="">
				<dc:format>image/svg+xml</dc:format>
				<dc:type
						rdf:resource="http://purl.org/dc/dcmitype/StillImage" />
				<dc:title></dc:title>
			</cc:Work>
		</rdf:RDF>
	</metadata>
	<g
			inkscape:label="Layer 1"
			inkscape:groupmode="layer"
			id="layer1"
			transform="translate(-68.103574,-132.20208)">
		<g
				transform="matrix(0.35277777,0,0,-0.35277777,68.103574,165.46447)"
				inkscape:label="ink_ext_XXXXXX"
				id="g842">
			<g
					transform="scale(0.1)"
					id="g844">
				<path
						inkscape:connector-curvature="0"
						id="path846"
						style="fill:#ffffff;fill-opacity:1;fill-rule:nonzero;stroke:none"
						d="m 1002.63,401.398 c -41.294,0 -76.122,-27.859 -90.06,-59.218 h -0.996 c -8.457,40.812 -33.347,59.218 -73.656,59.218 -40.793,0 -77.125,-31.355 -89.563,-61.199 h -0.992 c 0,0 1.481,6.453 1.481,14.434 v 12.93 c 0,18.406 -10.446,27.871 -31.844,27.871 h -34.102 v -37.325 c 0,0 18.946,-3.476 18.946,-10.449 V 180.961 143.637 h 48.504 v 37.324 76.621 c 0,49.277 27.871,100.027 75.644,100.027 38.805,0 43.778,-30.351 43.778,-63.191 V 143.637 h 48.273 v 37.324 78.621 c 0,49.758 26.859,98.027 74.145,98.027 37.812,0 44.282,-27.871 44.282,-63.191 V 143.637 h 48.28 v 37.324 123.894 c 0,64.2 -26.37,96.543 -82.12,96.543" />
				<path
						inkscape:connector-curvature="0"
						id="path848"
						style="fill:#ffffff;fill-opacity:1;fill-rule:nonzero;stroke:none"
						d="M 283.211,365.07 168.625,264.016 c -3.457,-3.055 -8.754,-2.723 -11.82,0.754 L 51.5781,384.074 c -3.0625,3.469 -2.7304,8.77 0.7227,11.828 L 166.887,496.961 c 3.472,3.059 8.773,2.715 11.84,-0.742 L 283.945,376.898 c 3.063,-3.476 2.727,-8.769 -0.734,-11.828 z m 346.937,417.91 c -5.593,19.59 -18.539,12.879 -34.316,-2.41 46.059,103.95 -22.141,159.762 -22.141,159.688 -11.73,7.719 -20.093,-2.66 -19.914,-18.102 C 556.145,797.125 464.754,724.855 364.949,664.926 289.902,616.453 263.336,534.871 254.137,476.551 c -2.293,-7.145 -7.696,-3.746 -10.285,-1.531 l -57.723,65.449 c -6.293,7.136 -15.176,10.629 -23.996,10.32 -6.832,-0.234 -13.613,-2.734 -19.145,-7.601 l -2.601,-2.301 -0.035,0.043 -0.051,-0.043 -13.942,15.804 c -4.117,4.661 -9.746,7.11 -15.23,7.184 -4.234,0.023 -8.371,-1.371 -11.6602,-4.273 l -7.6915,-6.786 c -7.5859,-6.679 -7.8007,-18.839 -0.4804,-27.14 L 105.234,509.871 10.3516,426.195 C -2.31641,415.012 -3.52344,395.715 7.64844,383.059 L 336.367,10.3438 C 342.645,3.23438 351.473,-0.261719 360.266,0.0117188 367.125,0.21875 373.957,2.74609 379.508,7.62891 L 512.145,124.633 c 12.668,11.172 13.867,30.476 2.703,43.125 L 403.605,293.891 c -0.058,0.105 -0.101,0.195 -0.167,0.281 -4.094,6.523 7.453,5.254 7.453,5.254 l 0.019,0.117 c 17.914,-0.594 31.285,3.555 40.774,9.934 14.398,9.687 -1.973,16.816 -4.508,23.855 22.215,-10.691 65.879,-1.59 76.758,12.441 8.496,10.969 -6.125,15.559 -20.094,18.692 35.238,16.379 63.371,32.746 78.473,71.629 8.847,22.773 -15.5,23.449 -39.747,14.269 19.782,19.793 39.645,46.813 49.536,81.399 11.195,39.168 -3.418,58.886 -34.981,32.457 28.715,28.133 54.512,65.441 53.391,97.625 -1.067,30.5 -24.504,20.738 -32.407,18.187 31.813,19.754 59.215,77.852 52.043,102.949" />
				<path
						inkscape:connector-curvature="0"
						id="path850"
						style="fill:#ffffff;fill-opacity:1;fill-rule:nonzero;stroke:none"
						d="m 1803.77,439.379 c 16.47,0 29.83,13.359 29.83,29.832 0,16.48 -13.36,29.836 -29.83,29.836 -16.49,0 -29.84,-13.356 -29.84,-29.836 0,-16.473 13.35,-29.832 29.84,-29.832" />
				<path
						inkscape:connector-curvature="0"
						id="path852"
						style="fill:#ffffff;fill-opacity:1;fill-rule:nonzero;stroke:none"
						d="m 1533.78,179.465 c -41.81,0 -71.17,35.324 -71.17,90.07 0,57.227 32.35,89.57 72.65,89.57 47.77,0 71.16,-43.789 71.16,-90.07 0,-62.703 -35.34,-89.57 -72.64,-89.57 z m 119.42,12.433 v 303.055 h -90.07 v -37.324 h 41.81 v -79.617 c 0,-10.949 1.48,-18.907 1.48,-18.907 h -0.99 c 0,0 -20.41,42.293 -77.64,42.293 -67.67,0 -114.44,-51.746 -114.44,-131.863 0,-78.137 42.29,-131.875 109.96,-131.875 64.71,0 85.1,50.262 85.1,50.262 h 0.99 c 0,0 -1.47,-4.981 -1.47,-13.438 V 171 c 0,-16.426 8.94,-27.363 31.33,-27.363 h 50.27 v 37.324 h -25.37 c -6.99,0 -10.96,3.477 -10.96,10.937" />
				<path
						inkscape:connector-curvature="0"
						id="path854"
						style="fill:#ffffff;fill-opacity:1;fill-rule:nonzero;stroke:none"
						d="m 1827.66,395.434 h -90.07 v -37.325 h 41.79 V 180.961 h -39.31 v -37.324 h 127.39 v 37.324 h -39.8 v 214.473" />
				<path
						inkscape:connector-curvature="0"
						id="path856"
						style="fill:#ffffff;fill-opacity:1;fill-rule:nonzero;stroke:none"
						d="m 2120.59,211.809 c -8.94,-6.973 -37.81,-32.344 -80.61,-32.344 -48.26,0 -88.57,33.34 -88.57,90.566 0,53.742 34.83,89.571 85.58,89.571 22.4,0 54.25,-9.454 54.25,-28.868 v -17.421 h 42.8 v 30.859 c 0,43.301 -61.22,57.226 -98.55,57.226 -75.13,0 -133.35,-55.242 -133.35,-132.363 0,-81.113 63.19,-131.375 135.85,-131.375 53.25,0 89.58,28.367 101.02,38.817 l -18.42,35.332" />
				<path
						inkscape:connector-curvature="0"
						id="path858"
						style="fill:#ffffff;fill-opacity:1;fill-rule:nonzero;stroke:none"
						d="m 1187.74,295.902 c 6.98,42.293 36.84,67.188 73.66,67.188 31.85,0 58.72,-22.891 60.21,-67.188 z m 74.65,105.496 c -71.67,0 -125.89,-51.746 -125.89,-131.863 0,-74.648 54.22,-131.875 133.36,-131.875 60.21,0 98.04,34.832 98.04,34.832 l -19.92,35.332 c 0,0 -31.34,-28.359 -75.14,-28.359 -44.79,0 -84.1,29.855 -87.08,85.586 h 184.13 c 0,0 1.47,11.945 1.47,18.418 0,65.187 -37.32,117.929 -108.97,117.929" />
			</g>
		</g>
	</g>
</svg>
