<?xml version="1.0" encoding="UTF-8"?>
<!-- Generator: Adobe Illustrator 15.0.0, SVG Export Plug-In . SVG Version: 6.00 Build 0)  -->
<!DOCTYPE svg PUBLIC "-//W3C//DTD SVG 1.1//EN" "http://www.w3.org/Graphics/SVG/1.1/DTD/svg11.dtd">
<svg version="1.1" id="Layer_1" xmlns="http://www.w3.org/2000/svg" xmlns:xlink="http://www.w3.org/1999/xlink" x="0px" y="0px" width="550.768px" height="147.804px" viewBox="0 0 550.768 147.804" enable-background="new 0 0 550.768 147.804" xml:space="preserve">
<path fill="#FFFFFF" d="M93.16,45.028c-0.159-4.559-3.663-3.1-4.844-2.718c4.756-2.953,8.852-11.639,7.78-15.391  c-0.837-2.928-2.772-1.925-5.13,0.361c6.885-15.541-3.311-23.883-3.311-23.873c-1.754-1.154-3.004,0.398-2.977,2.706  c0.354,18.691-13.309,29.495-28.229,38.454c-11.218,7.246-15.189,19.441-16.564,28.16c-0.344,1.068-1.15,0.56-1.538,0.229  l-8.628-9.784c-0.941-1.067-2.27-1.589-3.588-1.543c-1.021,0.035-2.035,0.41-2.861,1.137l-0.389,0.344l-0.006-0.007l-0.008,0.007  l-2.084-2.363c-0.616-0.698-1.457-1.064-2.276-1.074c-0.634-0.004-1.252,0.205-1.743,0.639l-1.15,1.014  c-1.134,0.999-1.166,2.816-0.072,4.057l2.084,2.363L3.443,80.256c-1.894,1.671-2.074,4.556-0.404,6.447l49.141,55.718  c0.938,1.062,2.258,1.585,3.571,1.544c1.026-0.031,2.048-0.408,2.878-1.14l19.827-17.489c1.894-1.67,2.072-4.557,0.403-6.447  L62.23,100.033c-0.009-0.016-0.015-0.029-0.025-0.043c-0.611-0.974,1.114-0.785,1.114-0.785l0.003-0.018  c2.678,0.09,4.677-0.531,6.095-1.484c2.152-1.447-0.295-2.514-0.674-3.565c3.321,1.598,9.849,0.237,11.476-1.861  c1.27-1.639-0.916-2.325-3.004-2.794c5.268-2.447,9.473-4.894,11.73-10.707c1.322-3.404-2.316-3.506-5.942-2.133  c2.957-2.959,5.927-6.998,7.405-12.168c1.674-5.855-0.511-8.802-5.229-4.852C89.473,55.417,93.328,49.84,93.16,45.028z   M44.232,89.393l-17.129,15.106c-0.518,0.456-1.309,0.407-1.767-0.112L9.606,86.553c-0.458-0.52-0.408-1.312,0.108-1.77  l17.129-15.107c0.519-0.457,1.312-0.406,1.77,0.111l15.729,17.837C44.801,88.145,44.75,88.936,44.232,89.393z"/>
<g>
	<path fill="#FFFFFF" d="M129.274,76.856h-0.112l-4.928,27.888h-5.433l8.624-44.016l14.504,33.264l14.504-33.264l8.624,44.016   h-5.432l-4.928-27.888h-0.112l-12.656,28.784L129.274,76.856z"/>
	<path fill="#FFFFFF" d="M173.683,62.521h22.68v4.815h-17.416v11.816h16.912v4.815h-16.912v15.96h17.416v4.816h-22.68V62.521z"/>
	<path fill="#FFFFFF" d="M206.33,62.521h8.736c12.936,0,23.688,6.832,23.688,20.888c0,14.392-10.528,21.336-23.855,21.336h-8.568   V62.521z M211.594,99.928h1.849c10.752,0,20.048-4.031,20.048-16.296c0-12.319-9.296-16.296-20.048-16.296h-1.849V99.928z"/>
	<path fill="#FFFFFF" d="M251.913,104.744h-5.264V62.521h5.264V104.744z"/>
	<path fill="#FFFFFF" d="M293.353,70.584c-3.023-2.688-7.168-4.144-11.144-4.144c-9.464,0-16.688,7.896-16.688,17.248   c0,9.239,7.168,17.136,16.575,17.136c4.145,0,8.12-1.568,11.256-4.368v6.216c-3.247,1.904-7.392,2.969-11.088,2.969   c-12.04,0-22.008-9.576-22.008-21.784c0-12.488,10.024-22.232,22.456-22.232c3.696,0,7.448,0.896,10.64,2.856V70.584z"/>
	<path fill="#FFFFFF" d="M328.576,76.856h-0.112l-4.928,27.888h-5.433l8.624-44.016l14.504,33.264l14.504-33.264l8.624,44.016   h-5.432L354,76.856h-0.112l-12.656,28.784L328.576,76.856z"/>
	<path fill="#FFFFFF" d="M412.016,83.632c0,12.544-9.912,22.009-22.12,22.009s-22.119-9.465-22.119-22.009   c0-12.096,10.023-22.008,22.119-22.008C401.992,61.624,412.016,71.536,412.016,83.632z M406.752,83.632   c0-9.296-6.944-17.079-16.856-17.079s-16.855,7.783-16.855,17.079c0,9.633,7.728,17.08,16.855,17.08S406.752,93.265,406.752,83.632   z"/>
	<path fill="#FFFFFF" d="M419.463,62.521h5.152c7.951,0,15.455,2.072,15.455,11.592c0,3.08-1.68,6.664-4.535,8.008v0.112   c4.983,0.896,8.456,5.768,8.456,10.695c0,8.456-7.225,11.816-14.673,11.816h-9.855V62.521z M424.727,81.225h1.345   c4.983,0,9.071-1.009,9.071-7.057c0-5.936-4.031-6.943-8.96-6.943h-1.456V81.225z M424.727,100.04h4.032   c4.872,0,9.968-1.456,9.968-7.448c0-5.936-6.048-7.168-10.752-7.168h-3.248V100.04z"/>
	<path fill="#FFFFFF" d="M458.887,104.744h-5.264V62.521h5.264V104.744z"/>
	<path fill="#FFFFFF" d="M477.086,99.928h12.824v4.816h-18.088V62.521h5.264V99.928z"/>
	<path fill="#FFFFFF" d="M496.183,62.521h22.68v4.815h-17.416v11.816h16.912v4.815h-16.912v15.96h17.416v4.816h-22.68V62.521z"/>
</g>
<g>
	<path fill="#FFFFFF" d="M532.533,73.492h-1.317v-9.357h-2.507v-1.205h6.331v1.205h-2.507V73.492z"/>
	<path fill="#FFFFFF" d="M539.126,66.517h-0.028l-1.232,6.976h-1.359l2.157-11.01l3.628,8.32l3.628-8.32l2.157,11.01h-1.358   l-1.232-6.976h-0.028l-3.166,7.2L539.126,66.517z"/>
</g>
</svg>